<svg width="127" height="32" viewBox="0 0 127 32" fill="none" xmlns="http://www.w3.org/2000/svg">
<path d="M116.613 14.6374C122.725 14.978 127 18.342 127 23.1538C127 28.3489 121.785 31.5852 115.672 31.2445C110.671 30.9464 106.653 28.0934 105.456 24.4739L108.662 23.75C109.389 25.9217 112.552 28.2211 115.672 28.2211C119.434 28.2211 123.666 26.6882 123.666 22.9835C123.666 19.875 120.417 17.6181 116.57 17.6181C116.485 17.6181 116.314 17.6181 116.228 17.5755C110.757 17.1923 106.354 14.0412 106.354 8.7184C106.354 3.94917 111.312 0.287083 117.339 0.585158C121.529 0.883236 124.948 2.79944 126.701 5.52472L123.409 6.54669C122.469 5.14148 119.306 3.56593 117.126 3.56593C112.979 3.56593 109.731 5.43955 109.645 8.42032C109.346 12.1676 112.039 14.3819 116.613 14.6374Z" fill="#1F1F1F"/>
<path d="M99.4257 1.01099H101.477H102.033V20.5137C102.033 26.3475 97.8013 31.1168 91.9452 31.1168C86.089 31.1168 81.8572 26.3475 81.8572 20.5137V1.01099H82.4129H84.4647H84.7639V21.3654C84.7639 25.0275 88.3973 28.2211 91.9452 28.2211C95.4931 28.2211 99.1265 25.0275 99.1265 21.3654V1.01099H99.4257Z" fill="#1F1F1F"/>
<path d="M76.6495 30.8187H73.6146V12.3379L73.6573 7.95192L71.2208 10.8475L62.6717 20.1305L54.8492 12.4231L51.344 8.37774L51.4723 12.3379L51.4295 30.8187H48.3091V0.5L62.6717 15.6593L76.6495 0.5V30.8187Z" fill="#1F1F1F"/>
<path d="M43.5286 4.07694H26.5157V18.2995H41.5623V21.0247H26.5157V27.7953H43.5286V30.8187H26.5157V1.05359H43.5286V4.07694Z" fill="#1F1F1F"/>
<path d="M23.1682 1.01099L10.9429 31.5L0 1.01099H3.0777L8.97661 17.32L11.1139 23.5797L13.5077 17.2775L19.9623 1.01099H23.1682Z" fill="#1F1F1F"/>
</svg>
